<svg width="1200" height="900" viewBox="0 0 1200 900" fill="none" xmlns="http://www.w3.org/2000/svg">
  <rect width="1200" height="900" rx="48" fill="#061126"/>
  <rect x="72" y="72" width="1056" height="756" rx="36" fill="url(#paint0_linear)"/>
  <rect x="122" y="132" width="420" height="286" rx="28" fill="#0B1B38"/>
  <rect x="122" y="460" width="956" height="96" rx="24" fill="rgba(255,255,255,0.06)"/>
  <rect x="122" y="588" width="456" height="96" rx="24" fill="rgba(255,255,255,0.05)"/>
  <rect x="612" y="588" width="466" height="96" rx="24" fill="rgba(255,255,255,0.05)"/>
  <circle cx="895" cy="275" r="160" fill="#42D392" fill-opacity="0.16"/>
  <circle cx="980" cy="224" r="102" fill="#54A7FF" fill-opacity="0.22"/>
  <path d="M642 160H1030" stroke="#A8B4D8" stroke-opacity="0.35" stroke-width="22" stroke-linecap="round"/>
  <path d="M642 236H980" stroke="#A8B4D8" stroke-opacity="0.24" stroke-width="18" stroke-linecap="round"/>
  <path d="M642 304H920" stroke="#A8B4D8" stroke-opacity="0.18" stroke-width="18" stroke-linecap="round"/>
  <rect x="152" y="166" width="222" height="34" rx="17" fill="#54A7FF" fill-opacity="0.24"/>
  <rect x="152" y="226" width="320" height="24" rx="12" fill="#A8B4D8" fill-opacity="0.18"/>
  <rect x="152" y="272" width="280" height="24" rx="12" fill="#A8B4D8" fill-opacity="0.14"/>
  <defs>
    <linearGradient id="paint0_linear" x1="145" y1="72" x2="1078" y2="828" gradientUnits="userSpaceOnUse">
      <stop stop-color="#0A1834"/>
      <stop offset="1" stop-color="#09172D"/>
    </linearGradient>
  </defs>
</svg>
